<svg xmlns="http://www.w3.org/2000/svg" xmlns:xlink="http://www.w3.org/1999/xlink" width="500" zoomAndPan="magnify" viewBox="0 0 375 374.999991" height="500" preserveAspectRatio="xMidYMid meet" version="1.0"><defs><g/><clipPath id="c864e3c821"><path d="M 117 76.523438 L 258.480469 76.523438 L 258.480469 201 L 117 201 Z M 117 76.523438 " clip-rule="nonzero"/></clipPath><clipPath id="c2f16c61fe"><path d="M 143.890625 124.382812 L 231.109375 124.382812 L 231.109375 245.214844 L 143.890625 245.214844 Z M 143.890625 124.382812 " clip-rule="nonzero"/></clipPath><clipPath id="1150008863"><path d="M 186 145.59375 L 291 145.59375 L 291 254 L 186 254 Z M 186 145.59375 " clip-rule="nonzero"/></clipPath><clipPath id="d9fc371006"><path d="M 84 145.59375 L 189 145.59375 L 189 254 L 84 254 Z M 84 145.59375 " clip-rule="nonzero"/></clipPath><clipPath id="1aa8694831"><path d="M 174.449219 148.589844 L 200.550781 148.589844 L 200.550781 174.691406 L 174.449219 174.691406 Z M 174.449219 148.589844 " clip-rule="nonzero"/></clipPath><clipPath id="215424c50d"><path d="M 187.5 148.589844 C 180.292969 148.589844 174.449219 154.433594 174.449219 161.640625 C 174.449219 168.847656 180.292969 174.691406 187.5 174.691406 C 194.707031 174.691406 200.550781 168.847656 200.550781 161.640625 C 200.550781 154.433594 194.707031 148.589844 187.5 148.589844 Z M 187.5 148.589844 " clip-rule="nonzero"/></clipPath></defs><g clip-path="url(#c864e3c821)"><path fill="#6c9b31" d="M 187.339844 76.675781 C 186.746094 76.742188 186.191406 77.015625 185.769531 77.441406 L 117.777344 145.433594 C 116.75 146.472656 116.757812 148.144531 117.796875 149.171875 C 118.289062 149.660156 118.953125 149.933594 119.648438 149.9375 L 134.011719 149.9375 L 134.011719 198.296875 C 134.015625 199.75 135.191406 200.925781 136.644531 200.933594 L 238.636719 200.933594 C 240.089844 200.925781 241.265625 199.75 241.269531 198.296875 L 241.269531 149.9375 L 255.632812 149.9375 C 257.09375 149.933594 258.273438 148.746094 258.269531 147.285156 C 258.265625 146.589844 257.992188 145.925781 257.503906 145.433594 L 240.929688 128.859375 L 240.929688 106.167969 C 240.925781 104.714844 239.746094 103.539062 238.296875 103.535156 L 227.078125 103.535156 C 225.625 103.539062 224.449219 104.714844 224.441406 106.167969 L 224.441406 112.371094 L 189.511719 77.441406 C 188.941406 76.867188 188.140625 76.585938 187.339844 76.675781 Z M 187.339844 76.675781 " fill-opacity="1" fill-rule="nonzero"/></g><g clip-path="url(#c2f16c61fe)"><path fill="#6c9b31" d="M 143.890625 124.382812 L 231.109375 124.382812 L 231.109375 245.328125 L 143.890625 245.328125 Z M 143.890625 124.382812 " fill-opacity="1" fill-rule="nonzero"/></g><g clip-path="url(#1150008863)"><path fill="#486c1b" d="M 187.484375 253.199219 C 183.5625 225.292969 198.441406 164.710938 289.308594 145.59375 C 295.09375 182.859375 282.828125 256.558594 187.484375 253.199219 Z M 187.484375 253.199219 " fill-opacity="1" fill-rule="nonzero"/></g><path fill="#6c9b31" d="M 263.421875 182.066406 C 270.648438 172.59375 276.964844 163.71875 281.644531 156.773438 L 282.6875 157.476562 C 277.699219 164.878906 270.855469 174.46875 263.035156 184.640625 C 263.03125 184.652344 263.03125 184.664062 263.027344 184.671875 C 262.984375 184.875 262.847656 185.035156 262.671875 185.113281 C 262.128906 185.816406 261.585938 186.519531 261.035156 187.226562 C 263.128906 186.039062 266.300781 184.488281 269.628906 182.9375 C 274.027344 180.886719 278.757812 178.8125 281.769531 177.523438 C 282.089844 177.386719 282.457031 177.535156 282.59375 177.855469 C 282.730469 178.175781 282.582031 178.542969 282.265625 178.679688 C 279.257812 179.964844 274.542969 182.035156 270.160156 184.078125 C 265.753906 186.132812 261.753906 188.125 260.128906 189.257812 C 259.917969 189.40625 259.640625 189.40625 259.433594 189.273438 C 254.054688 196.128906 248.296875 203.128906 242.421875 209.8125 C 242.046875 210.238281 241.671875 210.664062 241.296875 211.085938 C 241.910156 210.816406 242.570312 210.539062 243.273438 210.257812 C 245.371094 209.414062 247.851562 208.511719 250.414062 207.625 C 255.546875 205.859375 261.046875 204.15625 264.542969 203.125 C 264.875 203.027344 265.222656 203.21875 265.324219 203.554688 C 265.421875 203.886719 265.230469 204.234375 264.898438 204.332031 C 261.414062 205.359375 255.9375 207.054688 250.824219 208.816406 C 248.269531 209.695312 245.8125 210.589844 243.742188 211.421875 C 241.664062 212.261719 240.015625 213.019531 239.054688 213.628906 C 239.035156 213.640625 239.011719 213.65625 238.988281 213.664062 C 233.152344 220.121094 227.25 226.179688 221.515625 231.386719 C 222.316406 231.175781 223.203125 230.960938 224.148438 230.753906 C 226.488281 230.238281 229.242188 229.730469 232.078125 229.261719 C 237.753906 228.324219 243.796875 227.527344 247.628906 227.082031 C 247.972656 227.042969 248.285156 227.289062 248.324219 227.632812 C 248.367188 227.980469 248.117188 228.289062 247.773438 228.332031 C 243.957031 228.773438 237.9375 229.566406 232.285156 230.503906 C 229.457031 230.96875 226.730469 231.472656 224.417969 231.980469 C 222.15625 232.480469 220.332031 232.980469 219.203125 233.453125 C 218.90625 233.710938 218.609375 233.972656 218.3125 234.226562 C 214.375 237.617188 210.535156 240.566406 206.871094 242.910156 C 206.855469 242.945312 206.84375 242.976562 206.828125 243.011719 C 206.710938 243.300781 206.402344 243.453125 206.109375 243.390625 C 202.773438 245.460938 199.589844 247.015625 196.625 247.925781 L 196.257812 246.722656 C 199.214844 245.816406 202.433594 244.222656 205.839844 242.074219 C 206.757812 239.546875 207.953125 234.402344 209.097656 228.824219 C 210.3125 222.90625 211.460938 216.574219 212.144531 212.554688 C 212.203125 212.210938 212.527344 211.980469 212.871094 212.039062 C 213.210938 212.097656 213.441406 212.421875 213.382812 212.761719 C 212.699219 216.796875 211.550781 223.140625 210.332031 229.078125 C 209.382812 233.691406 208.382812 238.101562 207.519531 240.976562 C 210.710938 238.835938 214.050781 236.234375 217.492188 233.273438 C 217.800781 233.003906 218.113281 232.734375 218.425781 232.460938 C 218.441406 232.445312 218.457031 232.433594 218.472656 232.421875 C 225.140625 226.578125 232.109375 219.457031 238.972656 211.800781 C 238.851562 211.648438 238.804688 211.441406 238.859375 211.238281 C 239.539062 208.832031 240.210938 203.273438 240.777344 197.230469 C 241.339844 191.214844 241.785156 184.796875 242.027344 180.722656 C 242.046875 180.375 242.34375 180.113281 242.691406 180.132812 C 243.035156 180.152344 243.300781 180.449219 243.28125 180.796875 C 243.039062 184.878906 242.589844 191.3125 242.027344 197.347656 C 241.554688 202.4375 240.992188 207.296875 240.394531 210.207031 C 240.757812 209.800781 241.117188 209.394531 241.476562 208.984375 C 248.597656 200.882812 255.546875 192.308594 261.859375 184.105469 C 262.25 182.058594 262.589844 177.820312 262.859375 173.230469 C 263.140625 168.421875 263.34375 163.292969 263.441406 160.035156 C 263.449219 159.6875 263.738281 159.414062 264.085938 159.425781 C 264.433594 159.433594 264.707031 159.726562 264.695312 160.070312 C 264.597656 163.335938 264.398438 168.480469 264.113281 173.304688 C 263.921875 176.585938 263.691406 179.746094 263.421875 182.066406 Z M 263.421875 182.066406 " fill-opacity="1" fill-rule="nonzero"/><g clip-path="url(#d9fc371006)"><path fill="#486c1b" d="M 187.515625 253.199219 C 191.4375 225.292969 176.558594 164.710938 85.691406 145.59375 C 79.90625 182.859375 92.171875 256.558594 187.515625 253.199219 Z M 187.515625 253.199219 " fill-opacity="1" fill-rule="nonzero"/></g><path fill="#6c9b31" d="M 111.578125 182.066406 C 104.351562 172.59375 98.035156 163.71875 93.351562 156.773438 L 92.308594 157.476562 C 97.300781 164.878906 104.144531 174.46875 111.964844 184.640625 C 111.96875 184.652344 111.96875 184.664062 111.972656 184.671875 C 112.015625 184.875 112.152344 185.035156 112.328125 185.113281 C 112.871094 185.816406 113.414062 186.519531 113.964844 187.226562 C 111.871094 186.039062 108.695312 184.488281 105.371094 182.9375 C 100.972656 180.886719 96.242188 178.8125 93.230469 177.523438 C 92.910156 177.386719 92.539062 177.535156 92.402344 177.855469 C 92.269531 178.175781 92.417969 178.542969 92.734375 178.679688 C 95.738281 179.964844 100.457031 182.035156 104.839844 184.078125 C 109.246094 186.132812 113.246094 188.125 114.867188 189.257812 C 115.082031 189.40625 115.355469 189.40625 115.566406 189.273438 C 120.945312 196.128906 126.703125 203.128906 132.578125 209.8125 C 132.953125 210.238281 133.328125 210.664062 133.703125 211.085938 C 133.089844 210.816406 132.429688 210.539062 131.726562 210.257812 C 129.628906 209.414062 127.148438 208.511719 124.582031 207.625 C 119.449219 205.859375 113.953125 204.15625 110.457031 203.125 C 110.125 203.027344 109.773438 203.21875 109.675781 203.554688 C 109.578125 203.886719 109.769531 204.234375 110.101562 204.332031 C 113.585938 205.359375 119.0625 207.054688 124.175781 208.816406 C 126.730469 209.695312 129.1875 210.589844 131.257812 211.421875 C 133.335938 212.261719 134.984375 213.019531 135.945312 213.628906 C 135.964844 213.640625 135.988281 213.65625 136.011719 213.664062 C 141.84375 220.121094 147.75 226.179688 153.484375 231.386719 C 152.683594 231.175781 151.796875 230.960938 150.851562 230.753906 C 148.511719 230.238281 145.757812 229.730469 142.917969 229.261719 C 137.242188 228.324219 131.203125 227.527344 127.371094 227.082031 C 127.027344 227.042969 126.714844 227.289062 126.671875 227.632812 C 126.632812 227.980469 126.878906 228.289062 127.226562 228.332031 C 131.042969 228.773438 137.0625 229.566406 142.714844 230.503906 C 145.539062 230.96875 148.269531 231.472656 150.582031 231.980469 C 152.84375 232.480469 154.667969 232.980469 155.796875 233.453125 C 156.09375 233.710938 156.390625 233.972656 156.6875 234.226562 C 160.625 237.617188 164.464844 240.566406 168.128906 242.910156 C 168.144531 242.945312 168.15625 242.976562 168.171875 243.011719 C 168.289062 243.300781 168.59375 243.453125 168.890625 243.390625 C 172.226562 245.460938 175.410156 247.015625 178.371094 247.925781 L 178.742188 246.722656 C 175.785156 245.816406 172.566406 244.222656 169.15625 242.074219 C 168.238281 239.546875 167.046875 234.402344 165.902344 228.824219 C 164.683594 222.90625 163.539062 216.574219 162.855469 212.554688 C 162.796875 212.210938 162.472656 211.980469 162.128906 212.039062 C 161.789062 212.097656 161.558594 212.421875 161.617188 212.761719 C 162.300781 216.796875 163.449219 223.140625 164.667969 229.078125 C 165.617188 233.691406 166.613281 238.101562 167.476562 240.976562 C 164.289062 238.835938 160.945312 236.234375 157.507812 233.273438 C 157.199219 233.003906 156.886719 232.734375 156.574219 232.460938 C 156.558594 232.445312 156.542969 232.433594 156.527344 232.421875 C 149.859375 226.578125 142.890625 219.457031 136.023438 211.800781 C 136.148438 211.648438 136.195312 211.441406 136.136719 211.238281 C 135.460938 208.832031 134.785156 203.273438 134.222656 197.230469 C 133.660156 191.214844 133.214844 184.796875 132.972656 180.722656 C 132.953125 180.375 132.65625 180.113281 132.308594 180.132812 C 131.960938 180.152344 131.699219 180.449219 131.71875 180.796875 C 131.960938 184.878906 132.40625 191.3125 132.96875 197.347656 C 133.445312 202.4375 134.007812 207.296875 134.601562 210.207031 C 134.242188 209.800781 133.882812 209.394531 133.523438 208.984375 C 126.402344 200.882812 119.453125 192.308594 113.140625 184.105469 C 112.75 182.058594 112.410156 177.820312 112.140625 173.230469 C 111.859375 168.421875 111.65625 163.292969 111.558594 160.035156 C 111.550781 159.6875 111.257812 159.414062 110.914062 159.425781 C 110.566406 159.433594 110.292969 159.726562 110.300781 160.070312 C 110.402344 163.335938 110.601562 168.480469 110.882812 173.304688 C 111.078125 176.585938 111.308594 179.746094 111.578125 182.066406 Z M 111.578125 182.066406 " fill-opacity="1" fill-rule="nonzero"/><path stroke-linecap="round" transform="matrix(0.530591, -0.530069, 0.530069, 0.530591, 148.319644, 144.993593)" fill="none" stroke-linejoin="miter" d="M 3.4987 3.499972 L 81.103682 3.49862 " stroke="#ffffff" stroke-width="7" stroke-opacity="1" stroke-miterlimit="4"/><path stroke-linecap="round" transform="matrix(-0.53033, -0.53033, 0.53033, -0.53033, 222.964545, 148.611655)" fill="none" stroke-linejoin="miter" d="M 3.500574 3.501137 L 80.877211 3.501137 " stroke="#ffffff" stroke-width="7" stroke-opacity="1" stroke-miterlimit="4"/><g clip-path="url(#1aa8694831)"><g clip-path="url(#215424c50d)"><path fill="#ffffff" d="M 174.449219 148.589844 L 200.550781 148.589844 L 200.550781 174.691406 L 174.449219 174.691406 Z M 174.449219 148.589844 " fill-opacity="1" fill-rule="nonzero"/></g></g><g fill="#000000" fill-opacity="1"><g transform="translate(195.606925, 285.572919)"><g><path d="M 19.265625 0 L 14.953125 0 L 14.953125 -8.796875 L 6.890625 -8.796875 L 6.890625 0 L 2.5625 0 L 2.5625 -20.375 L 6.890625 -20.375 L 6.890625 -12.390625 L 14.953125 -12.390625 L 14.953125 -20.375 L 19.265625 -20.375 Z M 19.265625 0 "/></g></g></g><g fill="#000000" fill-opacity="1"><g transform="translate(217.44339, 285.572919)"><g><path d="M 21.0625 -10.21875 C 21.0625 -6.84375 20.222656 -4.25 18.546875 -2.4375 C 16.878906 -0.625 14.484375 0.28125 11.359375 0.28125 C 8.234375 0.28125 5.832031 -0.625 4.15625 -2.4375 C 2.488281 -4.25 1.65625 -6.851562 1.65625 -10.25 C 1.65625 -13.632812 2.492188 -16.222656 4.171875 -18.015625 C 5.847656 -19.804688 8.253906 -20.703125 11.390625 -20.703125 C 14.515625 -20.703125 16.90625 -19.800781 18.5625 -18 C 20.226562 -16.195312 21.0625 -13.601562 21.0625 -10.21875 Z M 6.1875 -10.21875 C 6.1875 -7.9375 6.617188 -6.21875 7.484375 -5.0625 C 8.347656 -3.914062 9.640625 -3.34375 11.359375 -3.34375 C 14.804688 -3.34375 16.53125 -5.632812 16.53125 -10.21875 C 16.53125 -14.8125 14.816406 -17.109375 11.390625 -17.109375 C 9.671875 -17.109375 8.375 -16.523438 7.5 -15.359375 C 6.625 -14.203125 6.1875 -12.488281 6.1875 -10.21875 Z M 6.1875 -10.21875 "/></g></g></g><g fill="#000000" fill-opacity="1"><g transform="translate(240.157768, 285.572919)"><g><path d="M 11.1875 0 L 6.28125 -15.984375 L 6.15625 -15.984375 C 6.332031 -12.734375 6.421875 -10.566406 6.421875 -9.484375 L 6.421875 0 L 2.5625 0 L 2.5625 -20.375 L 8.453125 -20.375 L 13.265625 -4.796875 L 13.359375 -4.796875 L 18.46875 -20.375 L 24.34375 -20.375 L 24.34375 0 L 20.328125 0 L 20.328125 -9.640625 C 20.328125 -10.097656 20.332031 -10.625 20.34375 -11.21875 C 20.351562 -11.8125 20.414062 -13.390625 20.53125 -15.953125 L 20.40625 -15.953125 L 15.15625 0 Z M 11.1875 0 "/></g></g></g><g fill="#000000" fill-opacity="1"><g transform="translate(267.066646, 285.572919)"><g><path d="M 14.296875 0 L 2.5625 0 L 2.5625 -20.375 L 14.296875 -20.375 L 14.296875 -16.84375 L 6.890625 -16.84375 L 6.890625 -12.359375 L 13.78125 -12.359375 L 13.78125 -8.828125 L 6.890625 -8.828125 L 6.890625 -3.5625 L 14.296875 -3.5625 Z M 14.296875 0 "/></g></g></g><g fill="#486c1b" fill-opacity="1"><g transform="translate(93.253716, 284.101827)"><g><path d="M 23.140625 -12.34375 C 23.140625 -8.351562 22.003906 -5.296875 19.734375 -3.171875 C 17.460938 -1.054688 14.1875 0 9.90625 0 L 3.046875 0 L 3.046875 -24.21875 L 10.65625 -24.21875 C 14.601562 -24.21875 17.671875 -23.171875 19.859375 -21.078125 C 22.046875 -18.992188 23.140625 -16.082031 23.140625 -12.34375 Z M 17.8125 -12.203125 C 17.8125 -17.410156 15.515625 -20.015625 10.921875 -20.015625 L 8.1875 -20.015625 L 8.1875 -4.234375 L 10.390625 -4.234375 C 15.335938 -4.234375 17.8125 -6.890625 17.8125 -12.203125 Z M 17.8125 -12.203125 "/></g></g></g><g fill="#486c1b" fill-opacity="1"><g transform="translate(118.358069, 284.101827)"><g><path d="M 10.3125 -15.265625 C 9.25 -15.265625 8.410156 -14.925781 7.796875 -14.25 C 7.191406 -13.570312 6.847656 -12.609375 6.765625 -11.359375 L 13.84375 -11.359375 C 13.820312 -12.609375 13.492188 -13.570312 12.859375 -14.25 C 12.234375 -14.925781 11.382812 -15.265625 10.3125 -15.265625 Z M 11.03125 0.328125 C 8.050781 0.328125 5.722656 -0.492188 4.046875 -2.140625 C 2.367188 -3.785156 1.53125 -6.113281 1.53125 -9.125 C 1.53125 -12.226562 2.300781 -14.625 3.84375 -16.3125 C 5.394531 -18.007812 7.539062 -18.859375 10.28125 -18.859375 C 12.90625 -18.859375 14.941406 -18.113281 16.390625 -16.625 C 17.847656 -15.132812 18.578125 -13.078125 18.578125 -10.453125 L 18.578125 -8 L 6.640625 -8 C 6.691406 -6.5625 7.113281 -5.4375 7.90625 -4.625 C 8.707031 -3.820312 9.828125 -3.421875 11.265625 -3.421875 C 12.378906 -3.421875 13.429688 -3.535156 14.421875 -3.765625 C 15.421875 -4.003906 16.460938 -4.378906 17.546875 -4.890625 L 17.546875 -0.984375 C 16.660156 -0.535156 15.710938 -0.207031 14.703125 0 C 13.703125 0.21875 12.476562 0.328125 11.03125 0.328125 Z M 11.03125 0.328125 "/></g></g></g><g fill="#486c1b" fill-opacity="1"><g transform="translate(138.395185, 284.101827)"><g><path d="M 10.171875 0.328125 C 4.410156 0.328125 1.53125 -2.832031 1.53125 -9.15625 C 1.53125 -12.300781 2.3125 -14.703125 3.875 -16.359375 C 5.445312 -18.023438 7.691406 -18.859375 10.609375 -18.859375 C 12.753906 -18.859375 14.675781 -18.441406 16.375 -17.609375 L 14.890625 -13.703125 C 14.097656 -14.015625 13.359375 -14.273438 12.671875 -14.484375 C 11.984375 -14.691406 11.296875 -14.796875 10.609375 -14.796875 C 7.984375 -14.796875 6.671875 -12.925781 6.671875 -9.1875 C 6.671875 -5.570312 7.984375 -3.765625 10.609375 -3.765625 C 11.585938 -3.765625 12.488281 -3.890625 13.3125 -4.140625 C 14.144531 -4.398438 14.972656 -4.804688 15.796875 -5.359375 L 15.796875 -1.046875 C 14.984375 -0.523438 14.160156 -0.164062 13.328125 0.03125 C 12.492188 0.226562 11.441406 0.328125 10.171875 0.328125 Z M 10.171875 0.328125 "/></g></g></g><g fill="#486c1b" fill-opacity="1"><g transform="translate(155.832444, 284.101827)"><g><path d="M 6.671875 -9.296875 C 6.671875 -7.460938 6.972656 -6.078125 7.578125 -5.140625 C 8.179688 -4.203125 9.160156 -3.734375 10.515625 -3.734375 C 11.859375 -3.734375 12.828125 -4.195312 13.421875 -5.125 C 14.015625 -6.0625 14.3125 -7.453125 14.3125 -9.296875 C 14.3125 -11.128906 14.007812 -12.503906 13.40625 -13.421875 C 12.8125 -14.335938 11.835938 -14.796875 10.484375 -14.796875 C 9.140625 -14.796875 8.164062 -14.335938 7.5625 -13.421875 C 6.96875 -12.515625 6.671875 -11.140625 6.671875 -9.296875 Z M 19.484375 -9.296875 C 19.484375 -6.273438 18.6875 -3.914062 17.09375 -2.21875 C 15.5 -0.519531 13.285156 0.328125 10.453125 0.328125 C 8.671875 0.328125 7.097656 -0.0546875 5.734375 -0.828125 C 4.378906 -1.609375 3.335938 -2.726562 2.609375 -4.1875 C 1.890625 -5.644531 1.53125 -7.347656 1.53125 -9.296875 C 1.53125 -12.316406 2.316406 -14.664062 3.890625 -16.34375 C 5.472656 -18.019531 7.691406 -18.859375 10.546875 -18.859375 C 12.328125 -18.859375 13.894531 -18.472656 15.25 -17.703125 C 16.613281 -16.929688 17.660156 -15.820312 18.390625 -14.375 C 19.117188 -12.925781 19.484375 -11.234375 19.484375 -9.296875 Z M 19.484375 -9.296875 "/></g></g></g><g fill="#486c1b" fill-opacity="1"><g transform="translate(176.830016, 284.101827)"><g><path d="M 12.984375 -18.859375 C 13.671875 -18.859375 14.238281 -18.8125 14.6875 -18.71875 L 14.3125 -13.984375 C 13.90625 -14.085938 13.40625 -14.140625 12.8125 -14.140625 C 11.207031 -14.140625 9.953125 -13.722656 9.046875 -12.890625 C 8.148438 -12.066406 7.703125 -10.910156 7.703125 -9.421875 L 7.703125 0 L 2.65625 0 L 2.65625 -18.515625 L 6.46875 -18.515625 L 7.21875 -15.40625 L 7.46875 -15.40625 C 8.039062 -16.445312 8.816406 -17.28125 9.796875 -17.90625 C 10.773438 -18.539062 11.835938 -18.859375 12.984375 -18.859375 Z M 12.984375 -18.859375 "/></g></g></g></svg>